<svg width="24" height="24" viewBox="0 0 24 24" fill="none" xmlns="http://www.w3.org/2000/svg">
<rect width="24" height="24" rx="12" fill="#8B0EF6"/>
<path d="M5 6H5.58963L10.2462 18.2385L14.9028 6H15.4849L10.541 19H9.9514L5 6ZM10.6242 16.1739L10.3143 16.8961L6.17171 6H6.75378L10.6242 16.1739ZM11.2063 14.6274L10.919 15.4046L7.34341 6H7.93305L11.2063 14.6274ZM11.7808 13.0574L11.4935 13.8502L8.51512 6H9.09719L11.7808 13.0574ZM18.4104 6H19L14.0486 19H13.4665L18.4104 6ZM17.2462 6H17.8283L12.8769 19H12.2948L17.2462 6ZM16.067 6H16.6566L11.7052 19H11.1231L16.067 6Z" fill="white"/>
</svg>
